<?xml version="1.0" encoding="UTF-8"?>
<svg id="Layer_1" xmlns="http://www.w3.org/2000/svg" version="1.1" viewBox="0 0 160 160">
  <!-- Generator: Adobe Illustrator 29.5.1, SVG Export Plug-In . SVG Version: 2.1.0 Build 141)  -->
  <defs>
    <style>
      .st0 {
        fill: #56655a;
      }

      .st1 {
        fill: #fff;
      }
    </style>
  </defs>
  <path class="st0" d="M160,0v160H0V0h160ZM109.69,15.78h-3.2c-1.24,0-3.91-1.74-5.18-2.32-19.68-8.98-46.94-6.43-62.09,9.9-15.65,16.87-17.48,49.73-4.12,68.35,8.76,12.2,23.44,18.42,38.34,18.14v11.8c-.71,5.07.76,18.64-3.28,22.18-1.23,1.08-3.96,1.87-5.57,2.09s-2.01-.36-1.37,1.9l32.1-.16v-1.72c-2.94-.11-6.32-.91-7.69-3.8-1.85-3.92-1.43-12.72-1.53-17.22,0-.37-.16-.71-.17-1.08v-14.46c17.11.19,39.24-5.24,44.89-23.63,2.03-6.6,1.94-15.37-.85-21.74-4.8-10.98-16.77-14.43-27.86-14.95l-31.96.16.18,1.7c.52.18,1.07.24,1.53.58,1.7,1.25,1.18,6.76,1.58,8.73v45.4c-1.6-.23-3.26-.25-4.88-.51-18.15-2.91-27.06-19.7-28.72-36.6-1.88-19.22,2.38-41.04,19.7-52.02,13.45-8.52,32.06-6.48,42.48,5.77,2.93,3.45,5.16,7.82,6.1,12.25h1.71s-.16-18.74-.16-18.74Z"/>
  <path class="st1" d="M109.69,15.78l.16,18.75h-1.71c-.94-4.44-3.17-8.82-6.1-12.26-10.43-12.25-29.04-14.3-42.48-5.77-17.32,10.98-21.58,32.8-19.7,52.02,1.66,16.9,10.57,33.68,28.72,36.6,1.62.26,3.28.28,4.87.51v-45.4c-.39-1.97.13-7.48-1.57-8.73-.46-.34-1.01-.4-1.53-.58l-.18-1.7,31.96-.16c11.09.52,23.06,3.97,27.86,14.95,2.78,6.37,2.88,15.14.85,21.74-5.65,18.39-27.79,23.82-44.89,23.63v14.46c0,.37.16.71.16,1.08.09,4.5-.32,13.31,1.53,17.22,1.36,2.89,4.74,3.69,7.69,3.8v1.72s-32.1.16-32.1.16c-.64-2.26-.24-1.68,1.37-1.9s4.34-1.01,5.57-2.09c4.04-3.54,2.57-17.12,3.29-22.18v-11.8c-14.91.28-29.59-5.94-38.35-18.14-13.36-18.62-11.53-51.48,4.12-68.35,15.15-16.33,42.41-18.87,62.09-9.9,1.27.58,3.94,2.32,5.18,2.32h3.2ZM109.38,83.44h2.19l-.63,10.23c-.34,1.46-.09,3.19-.75,4.56-.81,1.67-5.35,3.98-7.11,4.76l-4.48,1.69c8.98-1.68,18.1-8.15,20.39-17.34,1.89-7.6,1.95-19.8-2.61-26.46-6.57-9.59-19.57-8.85-29.87-8.37l-.26.37-.31,51.64c11.46-1.51,20.56-10,23.44-21.09Z"/>
  <path class="st0" d="M109.38,83.44c-2.87,11.09-11.98,19.58-23.44,21.09l.31-51.64.26-.37c10.3-.49,23.3-1.22,29.87,8.37,4.56,6.65,4.5,18.86,2.61,26.46-2.29,9.19-11.41,15.67-20.39,17.34l4.48-1.69c1.76-.78,6.3-3.1,7.11-4.76.66-1.37.41-3.1.75-4.56l.63-10.23h-2.19Z"/>
</svg>